<svg width="24" height="24" viewBox="0 0 24 24" fill="none" xmlns="http://www.w3.org/2000/svg">
<g clip-path="url(#clip0_89_2766)">
<path d="M17.5 5.20781C18.5355 5.20781 19.375 4.36969 19.375 3.33422C19.375 2.29875 17.5 0 17.5 0C17.5 0 15.625 2.33953 15.625 3.375C15.625 4.41047 16.4641 5.20781 17.5 5.20781ZM11.5 5.20781C12.5355 5.20781 13.375 4.36969 13.375 3.33422C13.375 2.29875 11.5 0 11.5 0C11.5 0 9.625 2.33953 9.625 3.375C9.625 4.41047 10.4641 5.20781 11.5 5.20781ZM18.9578 10.4578L19 7.5C19 7.08581 18.6642 6.75 18.25 6.75H16.75C16.3375 6.75 16 7.0875 16 7.5V10.5H13V7.5C13 7.08581 12.6642 6.75 12.25 6.75H10.75C10.3375 6.75 10 7.0875 10 7.5V10.5H7V7.5C7 7.08581 6.66419 6.75 6.25 6.75H4.75C4.33562 6.75 4 7.0875 4 7.5V10.4986C2.34297 10.4986 1 11.8416 1 13.4564V16.6767C1.46003 16.9627 2.00266 17.2078 2.5 17.2078C3.4675 17.2078 4.61172 16.283 4.97031 15.9267C5.26328 15.6352 5.73625 15.6352 6.02922 15.9267C6.34844 16.3266 7.53438 17.2078 8.5 17.2078C9.46562 17.2078 10.6117 16.283 10.9703 15.9267C11.2633 15.6352 11.7362 15.6352 12.0292 15.9267C12.3484 16.3266 13.5344 17.2078 14.5 17.2078C15.4656 17.2078 16.6117 16.283 16.9703 15.9267C17.2633 15.6352 17.7362 15.6352 18.0292 15.9267C18.3484 16.3266 19.5344 17.2078 20.5 17.2078C20.9973 17.2078 21.5402 16.9628 22 16.6767V13.4578C22 11.8406 20.6547 10.4578 18.9578 10.4578ZM17.5 17.4984C16.8555 18.0117 15.7173 18.7481 14.5 18.7481C13.2827 18.7481 12.1445 18.0122 11.5 17.4984C10.8555 18.0117 9.71734 18.7481 8.5 18.7481C7.28266 18.7481 6.14453 18.0122 5.5 17.4984C4.85547 18.0117 3.71734 18.7481 2.5 18.7481C1.97172 18.7481 1.46453 18.6018 1 18.4023V22.4983C1 23.3297 1.67172 24 2.5 24H20.5C21.3283 24 22 23.3283 22 22.5V18.4041C21.5355 18.6036 21.0283 18.7499 20.5 18.7499C19.2812 18.7078 18.1469 18.0141 17.5 17.4984ZM5.5 5.20781C6.53547 5.20781 7.375 4.36969 7.375 3.33422C7.375 2.29875 5.5 0 5.5 0C5.5 0 3.625 2.33953 3.625 3.375C3.625 4.41047 4.46453 5.20781 5.5 5.20781Z" fill="#3E3E3E"/>
</g>
<defs>
<clipPath id="clip0_89_2766">
<rect width="21" height="24" fill="white" transform="translate(1)"/>
</clipPath>
</defs>
</svg>
