<svg width="24" height="24" viewBox="0 0 24 24" fill="none" xmlns="http://www.w3.org/2000/svg">
<path d="M19 6.75C19 10.4766 15.9766 13.5 12.25 13.5C8.52203 13.5 5.5 10.4766 5.5 6.75C5.5 3.02203 8.52203 0 12.25 0C15.9766 0 19 3.02203 19 6.75ZM13 3C13 2.58562 12.6625 2.25 12.25 2.25C9.72344 2.25 7.75 4.26469 7.75 6.75C7.75 7.1625 8.08562 7.5 8.5 7.5C8.9125 7.5 9.25 7.1625 9.25 6.75C9.25 5.09531 10.5953 3.75 12.25 3.75C12.6625 3.75 13 3.41438 13 3ZM10.75 22.5V14.8641C11.2375 14.9531 11.7391 14.9578 12.25 14.9578C12.7609 14.9578 13.2625 14.9531 13.75 14.8641V22.5C13.75 23.3297 13.0797 24 12.25 24C11.4203 24 10.75 23.3297 10.75 22.5Z" fill="#3E3E3E"/>
</svg>
