<svg width="29" height="30" viewBox="0 0 29 30" fill="none" xmlns="http://www.w3.org/2000/svg">
<rect x="1.5" y="1.5" width="26" height="26" rx="3.5" stroke="black" stroke-width="3" stroke-linejoin="round"/>
<path d="M8.386 10.02H7.522C7.354 10.02 7.222 9.966 7.126 9.858C7.042 9.75 7 9.594 7 9.39C7 9.09 7.108 8.868 7.324 8.724C7.54 8.568 7.828 8.49 8.188 8.49H12.652C12.88 8.49 12.994 8.61 12.994 8.85C12.994 9.054 12.916 9.222 12.76 9.354C12.604 9.474 12.364 9.594 12.04 9.714L11.248 10.002L14.074 18.3C14.146 18.516 14.2 18.738 14.236 18.966C14.284 19.194 14.308 19.338 14.308 19.398H14.38C14.38 19.338 14.398 19.194 14.434 18.966C14.482 18.738 14.548 18.516 14.632 18.3L17.674 10.02H16.612C16.444 10.02 16.312 9.966 16.216 9.858C16.132 9.75 16.09 9.594 16.09 9.39C16.09 9.09 16.198 8.868 16.414 8.724C16.63 8.568 16.918 8.49 17.278 8.49H20.968C21.196 8.49 21.31 8.61 21.31 8.85C21.31 9.138 21.082 9.39 20.626 9.606L19.726 10.02L15.586 21H12.436L8.386 10.02Z" fill="black"/>
</svg>
